<svg xmlns="http://www.w3.org/2000/svg" fill="currentColor" viewBox="0 0 518 598">
  <path d="M258.925 0C277.41 13.658 297.605 29.199 316.285 42.283C314.33 57.9605 311.345 76.322 310.225 91.573C308.45 98.246 307.79 109.58 306.755 116.742C305.21 127.462 303.935 138.261 302.62 149.006L290.195 244.235C298.97 238.049 309.205 229.823 317.86 223.22L371.275 182.479L423.64 142.638C432.9 135.592 443.495 127.903 452.385 120.556C459.16 124.046 468.16 127.675 475.255 130.763L517.615 149.24C515.5 172.691 512.275 196.55 509.79 219.997C504.245 222.92 490.365 228.244 484.09 230.857L432.45 252.365L361.025 282.14C348.7 287.284 333.645 294.037 321.375 298.462L509.79 376.892C511.9 400.207 515.505 424.492 517.76 448.027C496.13 456.442 473.93 467.737 452.14 476.317C409.26 442.777 365.205 410.493 322.145 377.163C311.67 369.053 300.9 360.608 290.15 352.928C293.93 376.678 296.645 402.827 299.755 426.842L316.395 555.037C311.055 558.237 301.745 565.532 296.49 569.412L258.85 597.238C256.17 595.023 253.02 592.793 250.175 590.753C233.79 578.983 217.809 566.323 201.267 554.818C204.254 536.663 206.334 515.538 208.747 497.103C214.623 448.948 220.92 400.843 227.637 352.798C213.944 362.728 199.403 374.287 185.827 384.637L106.095 445.378C92.993 455.373 78.69 466.782 65.3535 476.267C43.778 467.437 21.513 457.242 0 447.947L7.79401 376.887C19.9235 372.197 32.707 366.623 44.7485 361.603L112.1 333.517L165.947 311.103C175.682 307.058 186.714 302.758 196.224 298.378C189.517 296.313 175.497 289.987 168.595 287.104L116.62 265.406L46.789 236.314C34.941 231.396 19.156 225.382 7.815 219.897C4.925 196.703 2.8245 172.59 0.0144958 149.294C21.2045 139.717 44.6595 130.501 65.4325 120.568C70.453 124.946 77.6905 130.125 83.1735 134.303L115.913 159.234C153.008 187.477 190.947 215.83 227.665 244.47C224.797 224.214 222.164 203.926 219.766 183.609L209.299 103.837L204.995 70.4815C204.608 67.311 203.48 55.703 202.818 53.4935C202.56 49.6525 201.971 46.3485 201.341 42.5465C208.873 36.2375 221.72 27.3185 230.078 21.21C238.69 14.916 250.32 5.7055 258.925 0Z"/>
</svg>
